<svg xmlns="http://www.w3.org/2000/svg" xmlns:xlink="http://www.w3.org/1999/xlink" width="500" zoomAndPan="magnify" viewBox="0 0 375 374.999991" height="500" preserveAspectRatio="xMidYMid meet" version="1.0"><defs><g/><clipPath id="00f7f5c0be"><path d="M 164 103.523438 L 196 103.523438 L 196 135 L 164 135 Z M 164 103.523438 " clip-rule="nonzero"/></clipPath><clipPath id="b933472101"><path d="M 137.035156 131 L 156 131 L 156 179 L 137.035156 179 Z M 137.035156 131 " clip-rule="nonzero"/></clipPath><clipPath id="82aebb459d"><path d="M 137.035156 126 L 237.972656 126 L 237.972656 201 L 137.035156 201 Z M 137.035156 126 " clip-rule="nonzero"/></clipPath></defs><path fill="#ff3131" d="M 215.804688 131.488281 C 210.324219 131.488281 205.902344 127.066406 205.902344 121.585938 C 205.902344 116.105469 210.324219 111.679688 215.804688 111.679688 C 221.285156 111.679688 225.710938 116.125 225.710938 121.585938 C 225.710938 127.046875 221.265625 131.488281 215.804688 131.488281 Z M 215.804688 131.488281 " fill-opacity="1" fill-rule="nonzero"/><g clip-path="url(#00f7f5c0be)"><path fill="#ff3131" d="M 195.691406 119.210938 C 195.691406 127.878906 188.667969 134.878906 180.023438 134.878906 C 171.355469 134.878906 164.332031 127.855469 164.332031 119.210938 C 164.3125 110.542969 171.335938 103.523438 180.003906 103.523438 C 188.667969 103.523438 195.691406 110.542969 195.691406 119.210938 Z M 195.691406 119.210938 " fill-opacity="1" fill-rule="nonzero"/></g><g clip-path="url(#b933472101)"><path fill="#ff3131" d="M 146.777344 131.976562 L 146.859375 131.976562 L 146.917969 131.996094 L 147 132.019531 L 147.042969 132.039062 L 147.101562 132.058594 L 147.164062 132.078125 L 147.222656 132.097656 L 147.285156 132.121094 L 147.34375 132.140625 L 147.425781 132.160156 L 147.46875 132.179688 L 147.546875 132.199219 L 147.589844 132.222656 L 147.671875 132.242188 L 147.710938 132.261719 L 147.730469 132.28125 L 147.832031 132.324219 L 147.933594 132.363281 L 147.976562 132.363281 L 148.097656 132.402344 L 148.21875 132.464844 L 148.339844 132.523438 L 148.359375 132.523438 C 148.480469 132.585938 148.605469 132.648438 148.726562 132.726562 L 148.808594 132.769531 L 148.828125 132.789062 L 148.886719 132.828125 L 148.949219 132.871094 L 148.988281 132.890625 L 149.070312 132.953125 L 149.113281 132.972656 L 149.191406 133.03125 L 149.234375 133.054688 C 149.292969 133.113281 149.375 133.175781 149.4375 133.214844 L 149.457031 133.234375 L 149.558594 133.316406 L 149.578125 133.335938 C 149.800781 133.539062 150.023438 133.742188 150.246094 133.988281 C 151.425781 135.265625 152.5 137.113281 153.351562 139.386719 L 153.414062 139.527344 L 153.433594 139.566406 L 153.453125 139.589844 L 153.578125 139.933594 L 153.597656 139.972656 L 153.617188 139.996094 C 153.65625 140.117188 153.699219 140.238281 153.757812 140.378906 L 153.757812 140.421875 L 153.882812 140.804688 L 153.902344 140.847656 L 153.921875 140.886719 L 154.042969 141.253906 L 154.0625 141.3125 L 154.164062 141.636719 L 154.183594 141.71875 L 154.207031 141.78125 L 154.308594 142.125 L 154.347656 142.226562 L 154.449219 142.59375 L 154.570312 143.078125 L 154.570312 143.121094 L 154.589844 143.179688 L 154.671875 143.566406 L 154.671875 143.605469 L 154.691406 143.648438 L 154.792969 144.074219 L 154.792969 144.113281 L 154.894531 144.5625 L 154.894531 144.621094 L 154.976562 145.070312 L 154.976562 145.089844 L 155.058594 145.535156 L 155.078125 145.597656 L 155.078125 145.617188 L 155.160156 146.023438 L 155.179688 146.105469 L 155.179688 146.144531 L 155.261719 146.609375 L 155.261719 146.632812 L 155.320312 147.078125 L 155.34375 147.179688 L 155.402344 147.625 L 155.402344 147.667969 L 155.421875 147.746094 L 155.464844 148.113281 L 155.484375 148.253906 L 155.546875 148.679688 L 155.546875 148.78125 L 155.585938 149.230469 L 155.585938 149.351562 L 155.648438 149.839844 L 155.648438 149.878906 L 155.6875 150.386719 L 155.6875 150.445312 L 155.726562 150.914062 L 155.726562 151.054688 L 155.75 151.441406 L 155.75 151.605469 L 155.769531 152.089844 L 155.769531 152.152344 L 155.789062 152.640625 L 155.789062 152.820312 L 155.808594 153.246094 L 155.808594 153.371094 L 155.828125 153.816406 L 155.828125 156.292969 L 155.808594 156.738281 L 155.808594 156.859375 L 155.789062 157.285156 L 155.789062 157.46875 L 155.769531 157.957031 L 155.769531 158.019531 L 155.75 158.503906 L 155.75 158.667969 L 155.726562 159.074219 L 155.726562 159.214844 L 155.6875 159.683594 L 155.6875 159.742188 L 155.648438 160.25 L 155.648438 160.289062 L 155.585938 160.796875 L 155.585938 160.878906 L 155.523438 161.347656 L 155.523438 161.425781 L 155.464844 161.855469 L 155.445312 161.914062 L 155.421875 161.996094 L 155.382812 162.359375 L 155.363281 162.441406 L 155.363281 162.484375 L 155.300781 162.929688 L 155.28125 163.03125 L 155.21875 163.496094 L 155.140625 163.984375 L 155.121094 164.046875 L 155.039062 164.53125 L 155.039062 164.554688 L 154.957031 165.039062 L 154.957031 165.101562 L 154.855469 165.566406 L 154.855469 165.589844 L 154.753906 166.054688 L 154.753906 166.074219 C 154.714844 166.238281 154.671875 166.398438 154.632812 166.5625 L 154.632812 166.582031 L 154.511719 167.050781 L 154.511719 167.070312 L 154.386719 167.496094 L 154.367188 167.558594 L 154.265625 167.960938 L 154.246094 168.023438 L 154.125 168.429688 L 154.105469 168.449219 L 154.085938 168.53125 L 153.984375 168.855469 L 153.960938 168.917969 L 153.839844 169.300781 L 153.820312 169.324219 L 153.800781 169.363281 C 153.757812 169.503906 153.71875 169.628906 153.679688 169.75 L 153.679688 169.769531 L 153.535156 170.132812 L 153.515625 170.15625 L 153.496094 170.195312 L 153.375 170.539062 L 153.351562 170.5625 L 153.351562 170.582031 L 153.292969 170.742188 C 152.257812 173.441406 150.957031 175.535156 149.496094 176.792969 C 149.3125 176.953125 149.113281 177.117188 148.910156 177.238281 L 148.785156 177.320312 L 148.664062 177.402344 L 148.542969 177.460938 L 148.421875 177.523438 L 148.300781 177.582031 L 148.179688 177.644531 L 148.054688 177.703125 L 147.933594 177.765625 L 147.8125 177.804688 L 147.691406 177.847656 L 147.570312 177.886719 L 147.445312 177.929688 L 147.203125 178.007812 L 147.082031 178.03125 L 146.839844 178.070312 L 146.714844 178.089844 L 146.59375 178.109375 L 146.332031 178.109375 C 146.25 178.109375 146.167969 178.109375 146.085938 178.089844 L 146.007812 178.089844 C 145.964844 178.089844 145.90625 178.070312 145.863281 178.070312 L 145.78125 178.050781 C 145.722656 178.03125 145.679688 178.03125 145.621094 178.03125 L 145.539062 178.007812 C 145.476562 177.988281 145.4375 177.988281 145.375 177.96875 L 145.296875 177.949219 C 145.253906 177.929688 145.195312 177.929688 145.132812 177.90625 L 145.050781 177.886719 C 145.011719 177.867188 144.949219 177.847656 144.910156 177.847656 L 144.808594 177.804688 L 144.6875 177.765625 L 144.566406 177.703125 L 144.441406 177.644531 L 144.320312 177.582031 L 144.199219 177.523438 L 144.097656 177.460938 L 143.957031 177.378906 L 143.875 177.320312 L 143.632812 177.15625 L 143.53125 177.074219 L 143.40625 176.996094 L 143.285156 176.914062 L 143.082031 176.75 L 142.839844 176.546875 L 142.738281 176.46875 L 142.617188 176.34375 L 142.515625 176.242188 L 142.109375 175.757812 L 141.988281 175.613281 L 141.90625 175.492188 L 141.785156 175.351562 L 141.703125 175.230469 L 141.601562 175.085938 L 141.519531 174.964844 L 141.398438 174.800781 L 141.316406 174.703125 L 141.195312 174.519531 L 141.113281 174.398438 L 141.011719 174.234375 L 140.933594 174.113281 L 140.832031 173.929688 L 140.75 173.789062 L 140.628906 173.585938 L 140.566406 173.484375 L 140.445312 173.261719 L 140.382812 173.136719 L 140.261719 172.914062 L 140.203125 172.8125 L 140.058594 172.507812 L 140.039062 172.46875 C 139.976562 172.347656 139.9375 172.246094 139.875 172.125 L 139.855469 172.101562 L 139.734375 171.820312 L 139.695312 171.738281 L 139.695312 171.71875 L 139.53125 171.351562 C 139.46875 171.230469 139.429688 171.089844 139.371094 170.964844 L 139.371094 170.945312 L 139.226562 170.5625 L 139.207031 170.539062 L 139.066406 170.15625 L 139.042969 170.113281 L 138.921875 169.75 L 138.902344 169.730469 L 138.839844 169.503906 L 138.78125 169.300781 L 138.71875 169.121094 L 138.636719 168.855469 L 138.597656 168.695312 L 138.515625 168.410156 L 138.476562 168.246094 L 138.394531 167.960938 L 138.355469 167.820312 L 138.273438 167.476562 L 138.234375 167.3125 L 138.152344 167.027344 L 138.089844 166.804688 L 138.03125 166.5625 L 137.988281 166.359375 L 137.929688 166.054688 L 137.886719 165.890625 L 137.828125 165.589844 L 137.785156 165.34375 L 137.726562 165.082031 L 137.683594 164.835938 L 137.644531 164.59375 L 137.601562 164.328125 L 137.5625 164.066406 L 137.523438 163.863281 L 137.460938 163.539062 L 137.421875 163.316406 L 137.378906 163.070312 L 137.339844 162.765625 L 137.300781 162.503906 L 137.257812 162.28125 L 137.21875 161.976562 L 137.175781 161.730469 L 137.15625 161.488281 L 137.117188 161.183594 L 137.097656 160.960938 L 137.054688 160.675781 L 137.035156 160.390625 L 137.015625 160.128906 L 136.996094 159.824219 L 136.972656 159.582031 L 136.953125 159.296875 L 136.933594 159.03125 L 136.914062 158.75 L 136.894531 158.445312 L 136.871094 158.21875 L 136.851562 157.894531 L 136.832031 157.671875 L 136.8125 157.308594 L 136.8125 157.285156 L 136.792969 156.78125 L 136.792969 156.71875 L 136.769531 156.191406 L 136.769531 156.148438 C 136.769531 155.765625 136.75 155.398438 136.75 155.015625 C 136.75 142.289062 141.011719 131.976562 146.289062 131.976562 C 146.472656 131.9375 146.613281 131.957031 146.777344 131.976562 Z M 146.777344 131.976562 " fill-opacity="1" fill-rule="nonzero"/></g><g clip-path="url(#82aebb459d)"><path fill="#ff3131" d="M 228.367188 126.417969 C 233.867188 126.78125 238.253906 131.390625 238.253906 136.96875 L 238.253906 176.589844 C 238.253906 182.414062 233.503906 187.164062 227.679688 187.164062 L 185.097656 187.164062 C 183.878906 187.164062 182.882812 188.15625 182.882812 189.375 L 182.882812 200.824219 L 167.84375 187.792969 C 167.359375 187.386719 166.832031 187.183594 166.199219 187.183594 L 163.726562 187.183594 C 158.527344 187.183594 154.164062 183.367188 153.292969 178.414062 L 153.292969 178.132812 C 151.585938 181.011719 149.515625 182.71875 147.265625 182.71875 C 141.460938 182.71875 136.769531 171.351562 136.769531 157.347656 C 136.769531 157.105469 136.769531 156.859375 136.769531 156.617188 C 136.933594 169.503906 141.296875 179.816406 146.65625 179.816406 C 149.191406 179.816406 151.527344 177.503906 153.273438 173.667969 C 155.28125 169.28125 156.558594 162.949219 156.558594 155.886719 C 156.558594 148.824219 155.300781 142.492188 153.273438 138.105469 C 151.609375 133.03125 148.480469 131.023438 144.625 131.671875 C 147.933594 130.65625 151.382812 132.039062 153.273438 135.203125 C 154.003906 130.941406 157.332031 127.511719 161.554688 126.640625 C 164.496094 133.925781 171.621094 139.082031 179.980469 139.082031 C 188.40625 139.082031 195.609375 133.824219 198.492188 126.417969 L 203.203125 126.417969 C 205.128906 131.46875 210.042969 135.0625 215.785156 135.0625 C 221.527344 135.042969 226.421875 131.46875 228.367188 126.417969 Z M 163.378906 137.355469 C 161.734375 137.355469 160.394531 138.695312 160.394531 140.339844 C 160.394531 141.984375 161.734375 143.324219 163.378906 143.324219 C 165.023438 143.324219 166.363281 141.984375 166.363281 140.339844 C 166.363281 138.695312 165.023438 137.355469 163.378906 137.355469 Z M 207.320312 158.585938 L 196.992188 152.617188 L 186.660156 146.652344 C 185.867188 146.183594 184.933594 146.183594 184.144531 146.652344 C 183.351562 147.117188 182.882812 147.910156 182.882812 148.84375 L 182.882812 172.671875 C 182.882812 173.605469 183.351562 174.398438 184.144531 174.863281 C 184.953125 175.332031 185.867188 175.332031 186.660156 174.863281 L 196.992188 168.894531 L 207.320312 162.929688 C 208.132812 162.460938 208.578125 161.671875 208.578125 160.738281 C 208.578125 159.804688 208.132812 159.050781 207.320312 158.585938 Z M 207.320312 158.585938 " fill-opacity="1" fill-rule="nonzero"/></g><g fill="#000000" fill-opacity="1"><g transform="translate(111.767999, 245.547313)"><g><path d="M 14.078125 -9.6875 L 24.25 -28.96875 L 32.25 -28.96875 L 15.9375 0 L 9.1875 0 L 3.96875 -28.96875 L 11.296875 -28.96875 Z M 14.078125 -9.6875 "/></g></g></g><g fill="#000000" fill-opacity="1"><g transform="translate(139.253127, 245.547313)"><g><path d="M 13.703125 -22.0625 C 15.765625 -22.0625 17.597656 -21.613281 19.203125 -20.71875 C 20.804688 -19.820312 22.046875 -18.597656 22.921875 -17.046875 C 23.804688 -15.503906 24.25 -13.8125 24.25 -11.96875 C 24.25 -10.832031 24.097656 -9.753906 23.796875 -8.734375 L 7.78125 -8.734375 C 7.945312 -7.410156 8.414062 -6.394531 9.1875 -5.6875 C 9.957031 -4.988281 10.976562 -4.640625 12.25 -4.640625 C 13.21875 -4.640625 14.070312 -4.84375 14.8125 -5.25 C 15.5625 -5.664062 16.101562 -6.175781 16.4375 -6.78125 L 23.21875 -6.78125 C 22.332031 -4.6875 20.890625 -2.941406 18.890625 -1.546875 C 16.890625 -0.160156 14.507812 0.53125 11.75 0.53125 C 9.738281 0.53125 7.925781 0.101562 6.3125 -0.75 C 4.695312 -1.601562 3.425781 -2.796875 2.5 -4.328125 C 1.582031 -5.859375 1.125 -7.585938 1.125 -9.515625 C 1.125 -11.703125 1.660156 -13.753906 2.734375 -15.671875 C 3.804688 -17.585938 5.300781 -19.128906 7.21875 -20.296875 C 9.132812 -21.472656 11.296875 -22.0625 13.703125 -22.0625 Z M 13.453125 -16.84375 C 12.234375 -16.84375 11.1875 -16.5 10.3125 -15.8125 C 9.445312 -15.125 8.796875 -14.195312 8.359375 -13.03125 L 17.796875 -13.03125 C 17.710938 -14.164062 17.296875 -15.082031 16.546875 -15.78125 C 15.804688 -16.488281 14.773438 -16.84375 13.453125 -16.84375 Z M 13.453125 -16.84375 "/></g></g></g><g fill="#000000" fill-opacity="1"><g transform="translate(163.095609, 245.547313)"><g><path d="M 13.703125 -22.0625 C 15.765625 -22.0625 17.597656 -21.613281 19.203125 -20.71875 C 20.804688 -19.820312 22.046875 -18.597656 22.921875 -17.046875 C 23.804688 -15.503906 24.25 -13.8125 24.25 -11.96875 C 24.25 -10.832031 24.097656 -9.753906 23.796875 -8.734375 L 7.78125 -8.734375 C 7.945312 -7.410156 8.414062 -6.394531 9.1875 -5.6875 C 9.957031 -4.988281 10.976562 -4.640625 12.25 -4.640625 C 13.21875 -4.640625 14.070312 -4.84375 14.8125 -5.25 C 15.5625 -5.664062 16.101562 -6.175781 16.4375 -6.78125 L 23.21875 -6.78125 C 22.332031 -4.6875 20.890625 -2.941406 18.890625 -1.546875 C 16.890625 -0.160156 14.507812 0.53125 11.75 0.53125 C 9.738281 0.53125 7.925781 0.101562 6.3125 -0.75 C 4.695312 -1.601562 3.425781 -2.796875 2.5 -4.328125 C 1.582031 -5.859375 1.125 -7.585938 1.125 -9.515625 C 1.125 -11.703125 1.660156 -13.753906 2.734375 -15.671875 C 3.804688 -17.585938 5.300781 -19.128906 7.21875 -20.296875 C 9.132812 -21.472656 11.296875 -22.0625 13.703125 -22.0625 Z M 13.453125 -16.84375 C 12.234375 -16.84375 11.1875 -16.5 10.3125 -15.8125 C 9.445312 -15.125 8.796875 -14.195312 8.359375 -13.03125 L 17.796875 -13.03125 C 17.710938 -14.164062 17.296875 -15.082031 16.546875 -15.78125 C 15.804688 -16.488281 14.773438 -16.84375 13.453125 -16.84375 Z M 13.453125 -16.84375 "/></g></g></g><g fill="#000000" fill-opacity="1"><g transform="translate(186.938088, 245.547313)"><g><path d="M 21.765625 -29.796875 L 28.6875 -29.796875 L 22.96875 0 L 16.5625 0 L 16.890625 -1.828125 C 16.117188 -1.128906 15.203125 -0.5625 14.140625 -0.125 C 13.078125 0.3125 11.894531 0.53125 10.59375 0.53125 C 8.882812 0.53125 7.3125 0.09375 5.875 -0.78125 C 4.4375 -1.664062 3.296875 -2.875 2.453125 -4.40625 C 1.617188 -5.9375 1.203125 -7.640625 1.203125 -9.515625 C 1.203125 -11.703125 1.722656 -13.757812 2.765625 -15.6875 C 3.816406 -17.613281 5.257812 -19.15625 7.09375 -20.3125 C 8.925781 -21.476562 10.976562 -22.0625 13.25 -22.0625 C 16.03125 -22.0625 18.207031 -21.175781 19.78125 -19.40625 Z M 12.796875 -5.59375 C 13.898438 -5.59375 14.882812 -5.867188 15.75 -6.421875 C 16.613281 -6.972656 17.28125 -7.695312 17.75 -8.59375 C 18.21875 -9.488281 18.453125 -10.414062 18.453125 -11.375 C 18.453125 -12.644531 18 -13.722656 17.09375 -14.609375 C 16.1875 -15.492188 15.066406 -15.9375 13.734375 -15.9375 C 12.640625 -15.9375 11.65625 -15.660156 10.78125 -15.109375 C 9.914062 -14.554688 9.238281 -13.835938 8.75 -12.953125 C 8.269531 -12.066406 8.03125 -11.128906 8.03125 -10.140625 C 8.03125 -8.867188 8.476562 -7.789062 9.375 -6.90625 C 10.269531 -6.03125 11.410156 -5.59375 12.796875 -5.59375 Z M 12.796875 -5.59375 "/></g></g></g><g fill="#000000" fill-opacity="1"><g transform="translate(213.181411, 245.547313)"><g><path d="M 13.703125 -22.0625 C 15.765625 -22.0625 17.597656 -21.613281 19.203125 -20.71875 C 20.804688 -19.820312 22.046875 -18.597656 22.921875 -17.046875 C 23.804688 -15.503906 24.25 -13.8125 24.25 -11.96875 C 24.25 -10.832031 24.097656 -9.753906 23.796875 -8.734375 L 7.78125 -8.734375 C 7.945312 -7.410156 8.414062 -6.394531 9.1875 -5.6875 C 9.957031 -4.988281 10.976562 -4.640625 12.25 -4.640625 C 13.21875 -4.640625 14.070312 -4.84375 14.8125 -5.25 C 15.5625 -5.664062 16.101562 -6.175781 16.4375 -6.78125 L 23.21875 -6.78125 C 22.332031 -4.6875 20.890625 -2.941406 18.890625 -1.546875 C 16.890625 -0.160156 14.507812 0.53125 11.75 0.53125 C 9.738281 0.53125 7.925781 0.101562 6.3125 -0.75 C 4.695312 -1.601562 3.425781 -2.796875 2.5 -4.328125 C 1.582031 -5.859375 1.125 -7.585938 1.125 -9.515625 C 1.125 -11.703125 1.660156 -13.753906 2.734375 -15.671875 C 3.804688 -17.585938 5.300781 -19.128906 7.21875 -20.296875 C 9.132812 -21.472656 11.296875 -22.0625 13.703125 -22.0625 Z M 13.453125 -16.84375 C 12.234375 -16.84375 11.1875 -16.5 10.3125 -15.8125 C 9.445312 -15.125 8.796875 -14.195312 8.359375 -13.03125 L 17.796875 -13.03125 C 17.710938 -14.164062 17.296875 -15.082031 16.546875 -15.78125 C 15.804688 -16.488281 14.773438 -16.84375 13.453125 -16.84375 Z M 13.453125 -16.84375 "/></g></g></g><g fill="#000000" fill-opacity="1"><g transform="translate(237.023897, 245.547313)"><g><path d="M 12 0.53125 C 10.09375 0.53125 8.304688 0.113281 6.640625 -0.71875 C 4.972656 -1.5625 3.632812 -2.753906 2.625 -4.296875 C 1.625 -5.847656 1.125 -7.601562 1.125 -9.5625 C 1.125 -11.820312 1.679688 -13.910156 2.796875 -15.828125 C 3.910156 -17.742188 5.460938 -19.257812 7.453125 -20.375 C 9.441406 -21.5 11.675781 -22.0625 14.15625 -22.0625 C 16.113281 -22.0625 17.925781 -21.632812 19.59375 -20.78125 C 21.269531 -19.925781 22.601562 -18.722656 23.59375 -17.171875 C 24.582031 -15.628906 25.078125 -13.878906 25.078125 -11.921875 C 25.078125 -9.628906 24.507812 -7.53125 23.375 -5.625 C 22.25 -3.71875 20.691406 -2.210938 18.703125 -1.109375 C 16.722656 -0.015625 14.488281 0.53125 12 0.53125 Z M 12.625 -5.625 C 13.78125 -5.625 14.78125 -5.898438 15.625 -6.453125 C 16.46875 -7.003906 17.113281 -7.726562 17.5625 -8.625 C 18.019531 -9.519531 18.25 -10.453125 18.25 -11.421875 C 18.25 -12.660156 17.8125 -13.710938 16.9375 -14.578125 C 16.070312 -15.453125 14.953125 -15.890625 13.578125 -15.890625 C 12.441406 -15.890625 11.445312 -15.613281 10.59375 -15.0625 C 9.738281 -14.507812 9.085938 -13.785156 8.640625 -12.890625 C 8.203125 -11.992188 7.984375 -11.050781 7.984375 -10.0625 C 7.984375 -8.820312 8.414062 -7.769531 9.28125 -6.90625 C 10.15625 -6.050781 11.269531 -5.625 12.625 -5.625 Z M 12.625 -5.625 "/></g></g></g></svg>